<?xml version="1.0" encoding="UTF-8"?>
<!DOCTYPE svg PUBLIC "-//W3C//DTD SVG 1.1//EN" "http://www.w3.org/Graphics/SVG/1.1/DTD/svg11.dtd">
<!-- Creator: CorelDRAW -->
<svg xmlns="http://www.w3.org/2000/svg" xml:space="preserve" width="9mm" height="6.8084mm" version="1.1" style="shape-rendering:geometricPrecision; text-rendering:geometricPrecision; image-rendering:optimizeQuality; fill-rule:evenodd; clip-rule:evenodd"
viewBox="0 0 11.64 8.81"
 xmlns:xlink="http://www.w3.org/1999/xlink"
 xmlns:xodm="http://www.corel.com/coreldraw/odm/2003">
 <defs>
  <style type="text/css">
   <![CDATA[
    .fil1 {fill:#FFC1FB;fill-rule:nonzero}
    .fil0 {fill:white;fill-rule:nonzero}
   ]]>
  </style>
 </defs>
 <g id="Camada_x0020_1">
  <metadata id="CorelCorpID_0Corel-Layer"/>
  <path class="fil0" d="M11.5 7.37c-0.15,-0.37 -0.5,-0.58 -0.94,-0.58 0,0 -9.67,0 -9.67,0 -0.79,0 -1.1,0.88 -0.76,1.45 0.07,0.17 0.19,0.33 0.37,0.44 0.26,0.16 0.6,0.12 0.89,0.12 0,0 9.29,0 9.29,0 0.52,0 0.92,-0.37 0.95,-0.89 0,-0 0,-0.01 0,-0.01l0 -0 0 -0c0,-0 0,-0.01 -0,-0.01 -0,-0.2 -0.05,-0.37 -0.14,-0.52l0 0z"/>
  <path class="fil0" d="M0.51 1.89c0.26,0.16 0.6,0.12 0.89,0.12 0,0 9.29,0 9.29,0 0.52,0 0.92,-0.37 0.95,-0.89 0,-0 0,-0.01 0,-0.01l0 -0 0 -0c0,-0 0,-0.01 -0,-0.01 -0,-0.2 -0.05,-0.37 -0.14,-0.52 -0.15,-0.37 -0.5,-0.58 -0.94,-0.58 0,0 -9.67,0 -9.67,0 -0.79,0 -1.1,0.88 -0.76,1.45 0.07,0.17 0.19,0.33 0.37,0.44l0 0z"/>
  <path class="fil0" d="M11.5 3.98c-0.15,-0.37 -0.5,-0.58 -0.94,-0.58 0,0 -9.67,0 -9.67,0 -0.79,0 -1.1,0.88 -0.76,1.45 0.07,0.17 0.19,0.33 0.37,0.44 0.26,0.16 0.6,0.12 0.89,0.12 0,0 9.29,0 9.29,0 0.52,0 0.92,-0.37 0.95,-0.89 0,-0 0,-0.01 0,-0.01l0 -0 0 -0c0,-0 0,-0.01 -0,-0.01 -0,-0.2 -0.05,-0.37 -0.14,-0.52l0 0z"/>
  <path class="fil1" d="M0.51 1.89c0.26,0.16 0.6,0.12 0.89,0.12 0,0 9.29,0 9.29,0 0.52,0 0.92,-0.37 0.95,-0.89 0,-0 0,-0.01 0,-0.01l0 -0 0 -0c0,-0 0,-0.01 -0,-0.01 -0,-0.2 -0.05,-0.37 -0.14,-0.52 -0.15,-0.37 -0.5,-0.58 -0.94,-0.58 0,0 -9.67,0 -9.67,0 -0.79,0 -1.1,0.88 -0.76,1.45 0.07,0.17 0.19,0.33 0.37,0.44l0 0zm0.4 -1.71c0,0 9.74,0 9.74,0 0.46,0 0.75,0.35 0.75,0.79 -0.02,0.42 -0.33,0.72 -0.75,0.72 0,0 -9.39,0 -9.39,0 -0.45,0 -0.91,-0.02 -1.06,-0.56 -0.13,-0.47 0.22,-0.95 0.71,-0.95l0 0z"/>
  <path class="fil1" d="M11.5 3.98c-0.15,-0.37 -0.5,-0.58 -0.94,-0.58 0,0 -9.67,0 -9.67,0 -0.79,0 -1.1,0.88 -0.76,1.45 0.07,0.17 0.19,0.33 0.37,0.44 0.26,0.16 0.6,0.12 0.89,0.12 0,0 9.29,0 9.29,0 0.52,0 0.92,-0.37 0.95,-0.89 0,-0 0,-0.01 0,-0.01l0 -0 0 -0c0,-0 0,-0.01 -0,-0.01 -0,-0.2 -0.05,-0.37 -0.14,-0.52l0 0zm-0.86 1.12c0,0 -9.39,0 -9.39,0 -0.45,0 -0.91,-0.02 -1.06,-0.56 -0.13,-0.47 0.22,-0.95 0.71,-0.95 0,0 9.74,0 9.74,0 0.46,0 0.75,0.35 0.75,0.79 -0.02,0.42 -0.33,0.72 -0.75,0.72z"/>
  <path class="fil1" d="M11.5 7.37c-0.15,-0.37 -0.5,-0.58 -0.94,-0.58 0,0 -9.67,0 -9.67,0 -0.79,0 -1.1,0.88 -0.76,1.45 0.07,0.17 0.19,0.33 0.37,0.44 0.26,0.16 0.6,0.12 0.89,0.12 0,0 9.29,0 9.29,0 0.52,0 0.92,-0.37 0.95,-0.89 0,-0 0,-0.01 0,-0.01l0 -0 0 -0c0,-0 0,-0.01 -0,-0.01 -0,-0.2 -0.05,-0.37 -0.14,-0.52l0 0zm-0.86 1.12c0,0 -9.39,0 -9.39,0 -0.45,0 -0.91,-0.02 -1.06,-0.56 -0.13,-0.47 0.22,-0.95 0.71,-0.95 0,0 9.74,0 9.74,0 0.46,0 0.75,0.35 0.75,0.79 -0.02,0.42 -0.33,0.72 -0.75,0.72z"/>
 </g>
</svg>
